<?xml version="1.0" standalone="no"?><!DOCTYPE svg PUBLIC "-//W3C//DTD SVG 1.1//EN" "http://www.w3.org/Graphics/SVG/1.1/DTD/svg11.dtd"><svg t="1702807155468" class="icon" viewBox="0 0 1024 1024" version="1.1" xmlns="http://www.w3.org/2000/svg" p-id="5683" xmlns:xlink="http://www.w3.org/1999/xlink" width="200" height="200"><path d="M923.365517 446.675862c67.089655-123.586207 111.227586-305.434483-81.213793-446.675862 51.2 134.17931-10.593103 316.027586-174.786207 377.82069-98.868966-40.606897-208.331034-40.606897-307.2 0-167.724138-61.793103-229.517241-243.641379-176.551724-377.82069C-8.827586 141.241379 33.544828 323.089655 100.634483 446.675862l28.248276 143.006897-47.668966 144.772413C139.475862 849.213793 301.903448 1024 512 1024c210.096552 0 354.868966-155.365517 430.786207-289.544828l-47.668966-144.772413 28.248276-143.006897zM248.937931 660.303448c-8.827586 7.062069-17.655172 15.889655-24.717241 24.717242v-47.668966s38.841379-97.103448 95.337931-97.103448c58.262069 0 95.337931 97.103448 95.337931 97.103448v47.668966c-38.841379-52.965517-112.993103-63.558621-165.958621-24.717242z m203.034483 206.565518c-37.075862-15.889655-68.855172-45.903448-84.744828-84.744828v-47.668966c84.744828 63.558621 201.268966 63.558621 287.779311 0v47.668966c-31.77931 79.448276-123.586207 118.289655-203.034483 84.744828z m347.806896-181.848276c-33.544828-52.965517-104.165517-68.855172-157.131034-35.310345-14.124138 8.827586-26.482759 21.186207-35.310345 35.310345v-47.668966s28.248276-97.103448 95.337931-97.103448c67.089655 0 95.337931 97.103448 95.337931 97.103448v47.668966z" fill="#010101" p-id="5684"></path></svg>